HIERARCHY
ROOT Hips
{
 OFFSET 0.000000 0.000000 0.000000
 CHANNELS 6 Xposition Yposition Zposition Yrotation Xrotation Zrotation
 JOINT Chest
 {
  OFFSET 0.000000 9.585900 0.002600
  CHANNELS 3 Yrotation Xrotation Zrotation
  JOINT Chest2
  {
   OFFSET 0.000000 9.601200 -0.005300
   CHANNELS 3 Yrotation Xrotation Zrotation
   JOINT Chest3
   {
    OFFSET 0.000000 9.561800 0.000000
    CHANNELS 3 Yrotation Xrotation Zrotation
    JOINT Chest4
    {
     OFFSET 0.000000 9.552100 0.000000
     CHANNELS 3 Yrotation Xrotation Zrotation
     JOINT Neck
     {
      OFFSET 0.000000 14.453000 0.000000
      CHANNELS 3 Yrotation Xrotation Zrotation
      JOINT Head
      {
       OFFSET 0.000000 8.936500 -0.011300
       CHANNELS 3 Yrotation Xrotation Zrotation
       End Site
       {
        OFFSET 0.000000 17.073600 -0.006000
       }
      }
     }
     JOINT RightCollar
     {
      OFFSET -2.921100 9.558500 0.000000
      CHANNELS 3 Yrotation Xrotation Zrotation
      JOINT RightShoulder
      {
       OFFSET -13.519700 0.000000 0.000000
       CHANNELS 3 Yrotation Xrotation Zrotation
       JOINT RightElbow
       {
        OFFSET 0.000000 -29.696600 0.000000
        CHANNELS 3 Yrotation Xrotation Zrotation
        JOINT RightWrist
        {
         OFFSET 0.000000 -24.004700 0.000000
         CHANNELS 3 Yrotation Xrotation Zrotation
         End Site
         {
          OFFSET 0.000000 -17.728500 0.000000
         }
        }
       }
      }
     }
     JOINT LeftCollar
     {
      OFFSET 2.921100 9.558500 0.000000
      CHANNELS 3 Yrotation Xrotation Zrotation
      JOINT LeftShoulder
      {
       OFFSET 13.519700 0.000000 0.000000
       CHANNELS 3 Yrotation Xrotation Zrotation
       JOINT LeftElbow
       {
        OFFSET 0.000000 -29.696600 0.000000
        CHANNELS 3 Yrotation Xrotation Zrotation
        JOINT LeftWrist
        {
         OFFSET 0.000000 -24.004700 0.000000
         CHANNELS 3 Yrotation Xrotation Zrotation
         End Site
         {
          OFFSET 0.000000 -17.728500 0.000000
         }
        }
       }
      }
     }
    }
   }
  }
 }
 JOINT RightHip
 {
  OFFSET -7.771700 -0.012900 -0.001300
  CHANNELS 3 Yrotation Xrotation Zrotation
  JOINT RightKnee
  {
   OFFSET 0.000000 -40.869800 0.001200
   CHANNELS 3 Yrotation Xrotation Zrotation
   JOINT RightAnkle
   {
    OFFSET 0.000000 -39.717900 0.002100
    CHANNELS 3 Yrotation Xrotation Zrotation
    JOINT RightToe
    {
     OFFSET 0.000000 -4.965400 11.033500
     CHANNELS 3 Yrotation Xrotation Zrotation
     End Site
     {
      OFFSET 0.000000 -1.423100 5.872300
     }
    }
   }
  }
 }
 JOINT LeftHip
 {
  OFFSET 7.771700 -0.012900 -0.001300
  CHANNELS 3 Yrotation Xrotation Zrotation
  JOINT LeftKnee
  {
   OFFSET 0.000000 -40.869800 0.001200
   CHANNELS 3 Yrotation Xrotation Zrotation
   JOINT LeftAnkle
   {
    OFFSET 0.000000 -39.717900 0.002100
    CHANNELS 3 Yrotation Xrotation Zrotation
    JOINT LeftToe
    {
     OFFSET 0.000000 -4.965400 11.033500
     CHANNELS 3 Yrotation Xrotation Zrotation
     End Site
     {
      OFFSET 0.000000 -1.423100 5.872300
     }
    }
   }
  }
 }
}
MOTION
Frames: 11
Frame Time: 0.008333
-19.878956 62.073248 12.174689 174.405260 -51.090835 -0.682268 4.676998 26.802240 1.516884 0.685483 4.599998 0.196443 1.110351 7.270483 0.338480 3.564677 21.784063 1.498473 -0.284745 15.447926 0.607416 -0.746374 -7.108600 1.235905 7.013449 3.328855 4.693959 -2.096663 -5.753051 -15.149771 -79.336426 -45.379896 127.807353 -7.021624 12.120817 -24.923603 -8.887142 1.532186 0.833582 -6.534259 -4.792282 15.506117 132.744797 -75.638198 -157.626604 10.773734 5.698053 -6.770786 2.766780 -16.065449 -4.546346 -1.949243 61.082038 -5.321994 1.835982 -7.244427 10.689456 0.216602 -0.426815 0.087254 -2.318531 -13.050634 4.313517 25.097142 77.049444 25.577671 0.932893 -11.760990 -3.221618 0.132246 0.536143 0.064348
-19.880051 62.074779 12.174441 174.399749 -51.088075 -0.677587 4.672795 26.806088 1.512173 0.690360 4.597028 0.197240 1.103831 7.273079 0.336484 3.567235 21.781193 1.496754 -0.262685 15.455391 0.607731 -0.717460 -7.107844 1.229862 7.018982 3.340031 4.678325 -2.106161 -5.744462 -15.111381 -79.342434 -45.376523 127.800919 -7.025525 12.128199 -24.915858 -8.912904 1.511540 0.834173 -6.496726 -4.767978 15.494459 132.759734 -75.636576 -157.644746 10.794159 5.696177 -6.736821 2.770821 -16.066599 -4.545832 -1.956446 61.079437 -5.328630 1.838296 -7.240316 10.691955 0.211593 -0.436077 0.086115 -2.311402 -13.050914 4.311103 25.095323 77.044318 25.577537 0.938732 -11.757928 -3.227385 0.123410 0.536086 0.069036
-19.882399 62.076335 12.173931 174.405097 -51.085359 -0.674045 4.666215 26.811143 1.506015 0.689585 4.593577 0.195803 1.102579 7.276949 0.336602 3.562866 21.782017 1.493573 -0.245600 15.455643 0.608015 -0.665177 -7.101344 1.216033 7.022405 3.344363 4.662203 -2.105848 -5.733538 -15.076198 -79.353023 -45.368861 127.795185 -7.024208 12.130160 -24.912304 -8.919553 1.493853 0.834791 -6.488257 -4.736532 15.474991 132.848467 -75.634860 -157.724938 10.870799 5.696790 -6.657982 2.774108 -16.065225 -4.556747 -1.959319 61.076635 -5.325345 1.838089 -7.241460 10.692798 0.210054 -0.438891 0.086080 -2.312499 -13.050439 4.300154 25.117700 77.032920 25.599853 0.932250 -11.755573 -3.230971 0.142138 0.539869 0.071060
-19.883518 62.077858 12.173443 174.407491 -51.082539 -0.675772 4.660185 26.813313 1.505313 0.688649 4.594389 0.195264 1.100880 7.278379 0.335976 3.557657 21.784222 1.490427 -0.232427 15.449704 0.605085 -0.582355 -7.087956 1.192390 7.031220 3.341863 4.650520 -2.114694 -5.716225 -15.041854 -79.361627 -45.381905 127.808096 -7.036266 12.118560 -24.919325 -8.914519 1.473069 0.831974 -6.483859 -4.718862 15.469009 132.827781 -75.634354 -157.694205 10.896147 5.695716 -6.630797 2.774566 -16.065812 -4.559462 -1.957751 61.075148 -5.321057 1.845835 -7.239417 10.695735 0.205030 -0.445122 0.084358 -2.315217 -13.051782 4.300994 25.152547 77.027610 25.632390 0.915340 -11.754699 -3.233021 0.140020 0.539615 0.070807
-19.885521 62.079224 12.172822 174.419125 -51.078844 -0.679714 4.650488 26.828801 1.505451 0.689781 4.583728 0.192895 1.092493 7.294060 0.336249 3.554201 21.773064 1.483970 -0.205664 15.449969 0.601929 -0.524735 -7.092010 1.174738 7.035330 3.337099 4.638490 -2.129527 -5.680014 -14.975147 -79.382126 -45.428493 127.843547 -7.031885 12.115520 -24.919974 -8.916581 1.448641 0.832635 -6.473710 -4.700007 15.459089 132.738298 -75.620226 -157.593430 10.922469 5.698802 -6.575103 2.769802 -16.067262 -4.566038 -1.952204 61.076287 -5.315440 1.845649 -7.239436 10.696401 0.208551 -0.449504 0.086378 -2.322094 -13.055057 4.296505 25.159033 77.026581 25.635412 0.908834 -11.754770 -3.231533 0.141518 0.539410 0.071710
-19.886709 62.080175 12.172429 174.419111 -51.072843 -0.680171 4.648760 26.828572 1.505609 0.681937 4.603248 0.194360 1.093623 7.282917 0.333370 3.550938 21.775673 1.480671 -0.176188 15.447452 0.598271 -0.456383 -7.102847 1.156649 7.049217 3.344499 4.609250 -2.157550 -5.685854 -14.915515 -79.374980 -45.427203 127.844671 -7.012061 12.126283 -24.911674 -8.919112 1.423996 0.836254 -6.458425 -4.677771 15.441223 132.766560 -75.607670 -157.618119 10.997296 5.700124 -6.474916 2.771266 -16.072387 -4.567639 -1.949753 61.076646 -5.308500 1.842867 -7.238780 10.692524 0.209759 -0.452350 0.089849 -2.323160 -13.058742 4.299127 25.134288 77.027989 25.606765 0.910154 -11.759649 -3.229260 0.142752 0.543527 0.071940
-19.888608 62.081161 12.171770 174.424303 -51.067803 -0.680952 4.641396 26.829520 1.501506 0.680925 4.604020 0.193661 1.090238 7.287220 0.333059 3.537276 21.782013 1.476859 -0.119167 15.450063 0.596536 -0.390197 -7.125848 1.138452 7.068219 3.332284 4.598764 -2.180269 -5.675417 -14.875078 -79.375815 -45.425875 127.842159 -7.045523 12.099473 -24.927938 -8.916319 1.399304 0.839194 -6.425804 -4.629943 15.408118 132.937253 -75.591795 -157.798769 11.088980 5.689370 -6.367068 2.773141 -16.076358 -4.570349 -1.961693 61.078149 -5.319137 1.843715 -7.238757 10.693898 0.207851 -0.455502 0.091218 -2.329492 -13.062202 4.300325 25.106804 77.031123 25.569602 0.909299 -11.764298 -3.220233 0.133833 0.546168 0.068118
-19.890264 62.080445 12.172401 174.417607 -51.050452 -0.675217 4.631537 26.837939 1.491985 0.684074 4.595517 0.193243 1.090511 7.285223 0.332099 3.519265 21.800355 1.473385 -0.088262 15.419878 0.590099 -0.271944 -7.140111 1.111815 7.099372 3.308868 4.573908 -2.206201 -5.672805 -14.819447 -79.370869 -45.426191 127.838630 -7.064556 12.078274 -24.942628 -8.908648 1.356665 0.842246 -6.395406 -4.599245 15.384228 132.958099 -75.560858 -157.821127 11.183674 5.684414 -6.237990 2.778809 -16.094425 -4.568489 -1.959864 61.078598 -5.322598 1.837548 -7.240279 10.697660 0.204995 -0.454079 0.091670 -2.325433 -13.079836 4.303611 25.091726 77.035157 25.549206 0.905414 -11.769810 -3.209650 0.137133 0.549560 0.063364
-19.891235 62.080945 12.172042 174.415222 -51.043103 -0.676517 4.628380 26.839887 1.490106 0.680074 4.602830 0.192017 1.089375 7.286725 0.330776 3.520471 21.795227 1.470766 -0.041191 15.413150 0.591075 -0.165250 -7.165696 1.090001 7.108868 3.307621 4.551898 -2.226808 -5.674976 -14.754857 -79.371785 -45.426845 127.840370 -7.079883 12.067066 -24.952699 -8.917801 1.335797 0.847290 -6.369741 -4.580226 15.369697 132.774192 -75.490687 -157.630296 11.264986 5.696374 -6.088642 2.781178 -16.100519 -4.566630 -1.951361 61.077776 -5.312541 1.832542 -7.242627 10.696880 0.202586 -0.452387 0.091502 -2.325028 -13.086983 4.308051 25.091109 77.036374 25.546433 0.905448 -11.769229 -3.208225 0.140090 0.548309 0.063644
-19.891463 62.081753 12.171523 174.409041 -51.038421 -0.678909 4.633773 26.837681 1.495950 0.674711 4.611774 0.191212 1.090875 7.284778 0.329179 3.523071 21.789644 1.470435 0.003380 15.413429 0.591159 -0.045799 -7.193967 1.067100 7.114783 3.305731 4.544263 -2.239609 -5.673300 -14.725009 -79.371681 -45.394669 127.835553 -7.090934 12.054201 -24.964840 -8.925756 1.327219 0.850145 -6.351681 -4.564635 15.356318 132.597880 -75.449590 -157.457249 11.407192 5.672239 -5.912058 2.784084 -16.104242 -4.557933 -1.950843 61.075934 -5.314388 1.834383 -7.242748 10.699651 0.197455 -0.452620 0.090581 -2.323239 -13.091370 4.315186 25.107560 77.038759 25.562235 0.907986 -11.769677 -3.209512 0.136782 0.545787 0.064145
-19.892684 62.081325 12.171933 174.403678 -51.024678 -0.675923 4.631117 26.835818 1.492317 0.676624 4.605508 0.191923 1.092842 7.282286 0.328259 3.514526 21.799925 1.464329 0.063327 15.400278 0.592383 0.081026 -7.218915 1.044625 7.123792 3.307194 4.529723 -2.248157 -5.683499 -14.686318 -79.368659 -45.366231 127.830490 -7.109223 12.033805 -24.978108 -8.930279 1.310778 0.856770 -6.323265 -4.535119 15.336553 132.356574 -75.391611 -157.227509 11.570991 5.634837 -5.710348 2.784508 -16.118746 -4.557132 -1.942486 61.075704 -5.310044 1.833760 -7.245528 10.701153 0.198249 -0.451241 0.089939 -2.320286 -13.105627 4.316048 25.108564 77.039371 25.567998 0.894213 -11.770171 -3.208538 0.147169 0.545181 0.062193
